<svg xmlns="http://www.w3.org/2000/svg" viewBox="0 0 24 24" fill="white">
  <path d="M14.23 12.004a2.236 2.236 0 0 1-2.235 2.236 2.236 2.236 0 0 1-2.236-2.236 2.236 2.236 0 0 1 2.235-2.236 2.236 2.236 0 0 1 2.236 2.236zm2.648-10.69c-1.346 0-3.107.96-4.888 2.622-1.78-1.653-3.542-2.602-4.887-2.602-.41 0-.783.093-1.106.278-1.375.793-1.683 3.264-.973 6.365C1.98 8.917 0 10.42 0 12.004c0 1.59 1.99 3.097 5.043 4.03-.704 3.113-.39 5.588.988 6.38.32.187.69.275 1.102.275 1.345 0 3.107-.96 4.888-2.624 1.78 1.654 3.542 2.603 4.887 2.603.41 0 .783-.09 1.106-.275 1.374-.792 1.683-3.263.973-6.365C22.02 15.096 24 13.59 24 12.004c0-1.59-1.99-3.097-5.043-4.032.704-3.11.39-5.587-.988-6.38-.318-.184-.688-.277-1.092-.278zm-.005 1.09v.006c.225 0 .406.044.558.127.666.382.955 1.835.73 3.704-.054.46-.142.945-.25 1.44-.96-.236-2.006-.417-3.107-.534-.66-.07-1.35-.114-2.062-.134.786-1.595 1.713-2.73 2.64-3.522.61-.52 1.1-.793 1.516-.793zm-9.742.028c.41 0 .89.262 1.488.77.92.784 1.84 1.9 2.622 3.475a36.425 36.425 0 0 0-2.054.133c-1.102.115-2.148.293-3.107.525-.107-.492-.194-.972-.248-1.43-.223-1.854.062-3.3.727-3.682.15-.087.333-.133.563-.133h.01zm4.884 5.253a33.513 33.513 0 0 1 2.378.143c1.785.2 3.435.534 4.885 1.002.328 1.05.518 2.146.544 3.23a33.626 33.626 0 0 1-2.378-.143c-1.785-.2-3.434-.533-4.885-1.002a24.1 24.1 0 0 1-.544-3.23zm-5.068.795c1.077-.26 2.228-.466 3.428-.6.19 1.135.485 2.235.867 3.27-1.078.26-2.228.465-3.428.6a23.958 23.958 0 0 1-.867-3.27zm10.136 0a24.084 24.084 0 0 1-.868 3.27c1.2.135 2.35.34 3.428.6-.19-1.135-.485-2.235-.867-3.27-1.078-.26-2.228-.465-3.428-.6.19-1.135.485-2.235.867-3.27zm-5.068 4.205c.19 1.135.485 2.235.867 3.27-1.078.26-2.228.465-3.428.6-.19-1.135-.485-2.235-.867-3.27 1.078-.26 2.228-.465 3.428-.6.19 1.135.485 2.235.867 3.27zm-5.632.482c1.378-.445 2.928-.76 4.542-.92.054.46.142.94.25 1.44-.96.236-2.006.417-3.107.534-.66.07-1.35.114-2.062.134.786-1.595 1.713-2.73 2.64-3.522.61-.52 1.1-.793 1.516-.793zm11.264 0c.41 0 .89.262 1.488.77.92.784 1.84 1.9 2.622 3.475a36.425 36.425 0 0 0-2.054.133c-1.102.115-2.148.293-3.107.525-.107-.492-.194-.972-.248-1.43-.223-1.854.062-3.3.727-3.682.15-.087.333-.133.563-.133h.01z"/>
</svg>